<svg id="Layer_1" data-name="Layer 1" xmlns="http://www.w3.org/2000/svg" viewBox="0 0 456.52 451.09"><defs><style>.cls-1{fill:#563900;}.cls-2{fill:#5e3101;}.cls-3{fill:#f2ad00;}.cls-4{fill:#9e1507;}</style></defs><path class="cls-1" d="M229.5,8.6c-19.6,1.8-27.9,2.9-39.5,5.4C111,30.7,47.3,87.1,22.2,162.6A222.64,222.64,0,0,0,12,207.5c-.6,5.5-1.5,14.1-2.1,19.1-.8,6.3-.8,10.7-.1,14.5.6,3,1.3,9.6,1.7,14.8,2,30.2,14.8,68.3,32.6,96.6C83.7,415.4,148.8,453.9,224.3,459c55.1,3.7,114-15.2,158.1-50.8,30.2-24.3,54-57.4,68.2-94.4,9.8-25.8,16.5-64.4,15-87-3.9-60.2-26.4-111.6-66.1-151.3A227.18,227.18,0,0,0,284,13.6C266.4,10,240.5,7.6,229.5,8.6ZM258.1,17A226.85,226.85,0,0,1,366.8,57.7c46.7,33.2,79,85.3,88.7,143.3,2.3,13.5,3,39.1,1.6,53.3-9.6,93-74.7,167.7-166.5,191.2-36.3,9.3-78.4,8.5-113.6-2.2C133.5,430.1,97.6,407.4,71,376c-31.8-37.4-49-78.8-53.1-127.8-1.3-15.3-.2-34.7,2.7-50.7C31.6,138,65.1,86.8,114.9,53.6,156.9,25.5,209.2,12.2,258.1,17Z" transform="translate(-9.29 -8.37)"/><path class="cls-2" d="M229.7,28.7c-.4.3-.4,3-.1,5.9l.7,5.2-5.2.3a43.57,43.57,0,0,1-6.1.1c-.6-.2-1-2.8-1-5.8,0-5.4,0-5.5-2.7-5.2l-2.8.3.2,8c.2,4.4.6,10.8.9,14.2.5,5.8.7,6.3,3,6.3s2.4-.3,2.4-6.5V45h10.8l.7,6c.7,5.8.8,6,3.7,6,2.7,0,2.9-.2,2.4-2.8-.3-1.5-.8-8-1.1-14.5-.7-11.2-.8-11.7-2.9-11.7A4.65,4.65,0,0,0,229.7,28.7Z" transform="translate(-9.29 -8.37)"/><path class="cls-2" d="M241,30.4c0,2.4.4,2.6,4.1,2.6h4.2l-.7,12.6-.8,12.5,2.9-.3c1.9-.2,2.9-.9,3-2.3.1-1.1.5-6.4.8-11.8l.7-9.7h4.4c3.7,0,4.4-.3,4.4-1.9,0-2.1-1.7-2.5-15.2-3.6l-7.8-.7Z" transform="translate(-9.29 -8.37)"/><path class="cls-2" d="M190.4,33a18,18,0,0,0-6.3,4.5c-2.6,3-3.1,4.4-3.1,8.6,0,13,10.6,19.7,21.9,14,6-3.1,6.6-4.3,5.2-10.6-.7-3-1.6-5.5-2.1-5.5a48.52,48.52,0,0,0-6,1.2c-4.3,1-5,1.5-4.8,3.2s1,2.1,3.8,2.1c4.9,0,4.9,3.3-.1,5.8-6.2,3-11.5-.7-12.6-9-.9-6.9,6.1-12.2,11.5-8.6,2.4,1.4,7.2,1.1,7.2-.5,0-.5-1.1-1.8-2.4-3.1C199.9,32.6,194.8,31.7,190.4,33Z" transform="translate(-9.29 -8.37)"/><path class="cls-2" d="M279.5,47.1c-4.8,6.6-8.5,12.2-8.3,12.4a14.23,14.23,0,0,0,2.9,1c2,.5,2.8.1,3.9-2,1.3-2.4,1.9-2.6,5.2-2.1,7,1.1,8.8,2.3,8.8,5.6,0,2.4.6,3.3,2.6,4a15.87,15.87,0,0,0,3,1c.3,0,.2-2.6-.1-5.8C293.8,29.7,292.6,28.7,279.5,47.1Zm10.8.6c.3,2.7.4,5,.2,5.1-.7.7-6.5-1-6.5-1.8,0-1.4,4.1-8,5-8C289.4,43,290,45.1,290.3,47.7Z" transform="translate(-9.29 -8.37)"/><path class="cls-2" d="M168,40c-1.3.8-.9,2.8,2.8,13.9,2.4,7.2,4.6,13.2,5,13.5a5,5,0,0,0,2.9-.5l2.2-.8-4.5-13.5c-2.5-7.5-5.1-13.6-5.7-13.6A6.42,6.42,0,0,0,168,40Z" transform="translate(-9.29 -8.37)"/><path class="cls-2" d="M312.5,45.4c-6.6,2.9-11,11.5-9.4,18.5,1.7,7.8,10.9,12.2,17.8,8.7,3.4-1.8,3.8-4.1,1-5.9-1.3-.8-2.1-.6-3.4.6-2.4,2.4-5.8,2.1-8.5-.8-2.3-2.4-2.3-2.8-1.2-7.3,1.2-4.7,5.8-10.2,8.6-10.2,2.2,0,6.6,4,6.6,6,0,1.8,3.6,3.4,5.3,2.3,1.4-.9-.2-5.6-3.1-8.6a15.43,15.43,0,0,0-6.1-3.7C315.7,43.8,316.2,43.8,312.5,45.4Z" transform="translate(-9.29 -8.37)"/><path class="cls-2" d="M144.2,49.8c-1,.7,0,3.9,4.4,14,6.3,14.8,4.4,13.9,16.7,8.3,4.1-1.9,6.7-3.6,6.7-4.6,0-2.7-2.6-2.7-7.9-.1a35.49,35.49,0,0,1-5.9,2.6c-.5,0-2.9-4.7-5.3-10.5C148.6,49.2,147.4,47.9,144.2,49.8Z" transform="translate(-9.29 -8.37)"/><path class="cls-2" d="M333.8,68.3c-10.2,8-11.4,9.3-10,10.4,2.3,1.7,4.7,1.6,6.2-.2,1.8-2.1,3.5-1.9,8.1,1.2,3.8,2.5,4.1,2.9,3.5,6.3-.4,2.9-.2,3.8,1.5,4.8a4.1,4.1,0,0,0,2.8.8c.5-.3,1.9-7.1,3.2-15.1,2.3-14.3,2.3-14.5.3-16a6.26,6.26,0,0,0-2.9-1.4C346,59.1,340.3,63.2,333.8,68.3Zm10.7,2.9c-1.1,6.6-1.5,6.9-5.5,3.8l-2.5-1.9,3.5-3a20.3,20.3,0,0,1,4.3-3.1C344.8,67,344.9,68.9,344.5,71.2Z" transform="translate(-9.29 -8.37)"/><path class="cls-2" d="M116,66.6c-4.1,3.1-7.5,5.9-7.5,6.3,0,1.7,15.1,23,16.1,22.7C127,94.7,141,84.4,141,83.4a3.9,3.9,0,0,0-1.1-2.1c-.8-.8-2.9.1-7.6,3.4-3.5,2.5-6.5,4.4-6.7,4.2-1.6-2.1-3.6-5.5-3.6-6.1s3.6-3.4,10.5-8q.9-.75-.6-2.4c-1.6-1.5-2.1-1.3-7,2a43.73,43.73,0,0,1-6,3.6c-.4,0-1.4-1.1-2.3-2.4-1.6-2.5-1.5-2.5,4.5-6.7,3.7-2.6,5.9-4.8,5.7-5.8C126.2,60.2,123.6,61.1,116,66.6Z" transform="translate(-9.29 -8.37)"/><path class="cls-1" d="M219,71.6c-.8.1-6.2,1-12,1.9-26.4,4.2-52.3,16.5-76.7,36.2-26.9,21.8-47,56.3-55,94.3-2.8,13.2-2.5,48.9.5,62.3,11.4,51.4,42.1,91.3,87.7,113.9,24,11.9,45.3,16.8,73.8,16.8,31.9,0,56.1-6.1,81.8-20.5,47.9-27,78.4-74.4,83.1-129.3,4.3-50.3-16.3-101.9-53.8-134.6C323.1,90.4,294.5,77,263,72.5,253.9,71.2,223.6,70.6,219,71.6ZM207.4,81.7c.3,1,4,15.1,8.2,31.3s7.8,29.8,8,30.2,3.3-.8,6.8-2.7,7-3.5,8-3.5,4.3,1.3,7.6,3,6.1,3,6.4,3,3.9-14.2,8.1-31.5c7.3-29.8,7.9-31.5,10-31.5,5.1,0,33.6,9.7,34.9,11.9.2.3-2.1,4-5.2,8.1s-12.8,16.8-21.5,28.2-15.7,21.3-15.7,22,1.8,3,3.9,5.3a62.39,62.39,0,0,1,7.9,10.5c2.2,3.6,4.4,6.4,4.9,6.3.7-.1,24.5-13,46.8-25.3,22.1-12.2,29.9-16.1,31-15.6,2.9,1.1,20.5,25.9,19.3,27.1-.4.4-7.6,2.1-46.8,10.5-10.7,2.4-26,5.7-34,7.5l-14.5,3.2-.6,10.9c-.4,8.1-1.2,12.8-3.2,18.5-1.5,4.1-2.7,7.8-2.7,8.1s2.6.8,5.8,1.1c13.3,1.4,53.9,5.9,83,9.2,17.2,1.9,31.7,3.5,32.4,3.5,1,0,.8,17.3-.3,18.4-.6.6-12.3-1.4-88.4-15.3C277.3,228.5,251,224,249.3,224c-3,0-3.2.2-2.8,2.7.4,2.2,3.9,65.4,5.8,103.8.3,5.9,2.1,6.9,6,3.3,2.9-2.6,3.6-5,15.2-54.8,3.7-15.7,7.2-29.1,7.8-29.8s2.5-1.2,4.6-1c3.3.3,3.9.8,7.4,7.3,2.1,3.8,12,22,22,40.4s19.2,34.7,20.5,36.3a13.06,13.06,0,0,0,6.8,3.9c5.2,1.3,6.7,2.9,6.2,6.6l-.3,2.8H306.6l-.7-3.2c-.8-4,.5-5.3,6.1-6,2.2-.3,4-1,4-1.6s-2.3-5.4-5.2-10.8l-5.2-9.9H277l-1.1,2.7c-1.6,4.1-1.7,17.5-.2,18,.7.3,3.3-2.7,5.8-6.6,4.5-7,4.7-7.1,8.8-7.1,2.4,0,4.8.5,5.4,1.1,1.1,1.1.9,12.9-.3,20.6l-.5,3.3H218.2l-.6-2.5c-.9-3.7.9-6.3,4.7-6.7,3.2-.3,3.2-.4,3.9-6.8,1-10,1.4-24,.6-24-.4,0-2.1,3-3.8,6.6-4.6,9.6-15,20.1-24.8,25.2-13.6,7-15.8,7.5-43.5,8-13.6.2-25.9.1-27.3-.2-2.3-.6-2.5-1-1.9-3.9.9-4.1,3-5.7,7.5-5.7a7.34,7.34,0,0,0,5.3-1.8c2.2-2.4,14.4-71.8,13-74.1-.5-.8-2.7-1.9-4.9-2.4-4.6-.9-5.3-1.9-4.5-6l.7-3.2,23.9-.3c18.8-.2,25.5.1,31,1.3,12.9,2.8,23.1,10.6,27.6,21,1.3,3,2.9,5.3,3.4,5.2s1.3-7,1.7-15.8c.4-8.5,1.2-19.9,1.6-25.4s.7-10.2.5-10.4c-.4-.6-13.4,1.4-29.3,4.4-6.9,1.3-34.1,6.3-60.5,11s-51.1,9.2-55,10-7.4,1-7.8.6-.6-5-.5-10.2l.3-9.4,20.5-2.1c11.3-1.2,38.1-4,59.5-6.3s39.5-4.3,40.2-4.5.3-2.6-1.5-7.3c-2.3-5.9-2.6-8.4-2.7-18.6,0-6.4-.2-11.7-.5-11.7s-21.6-4.7-47.6-10.5S100,159,99.6,159c-1.7,0-.1-3.4,5.2-11.1Q115.6,132,117.4,132c.5,0,18.8,9,40.7,20s40,20,40.3,20a42,42,0,0,0,4-5.8,72,72,0,0,1,7.6-10.1c2.2-2.4,4-4.7,4-5.1,0-.8-38.7-52.8-42.1-56.6a7.64,7.64,0,0,1-1.9-2.6c0-1.4,29.9-11.7,34.2-11.8C205.9,80,207.1,80.6,207.4,81.7Z" transform="translate(-9.29 -8.37)"/><path class="cls-3" d="M394.6,217.9c.7,6.9.6,7.1-1.6,7.1-1.2,0-20.8-2-43.4-4.5-63.5-7-65.7-7.3-66.2-7.8-.3-.3.2-3.2,1.1-6.6a104.61,104.61,0,0,0,2.2-14.1c.4-6.1,1-8.1,2.2-8.4.9-.3,9-2.1,18.1-4s28.4-6.2,43-9.5,27.1-5.9,27.7-6,2.6,2.9,4.3,6.5C388.2,184.2,393.3,203.4,394.6,217.9Z" transform="translate(-9.29 -8.37)"/><path class="cls-3" d="M319.6,99.3c14.5,9,33.8,25.6,31.9,27.5-.5.5-9.3,5.5-19.5,11s-25.7,13.9-34.4,18.7l-16,8.8-1.5-2.2c-.9-1.2-3.5-4.7-5.8-7.7a36.44,36.44,0,0,1-4.3-6c0-.4,1.5-2.5,3.3-4.8,4.4-5.4,17.2-22.1,28.6-37.4,5-6.7,9.5-12.2,9.9-12.2A56.16,56.16,0,0,1,319.6,99.3Z" transform="translate(-9.29 -8.37)"/><path class="cls-3" d="M261.9,78.6c.9.9-11.7,54.5-13.1,55.9-.3.4-2.4-.3-4.7-1.4-5.1-2.7-7.3-2.6-12.1.1-2.1,1.3-4.2,2-4.6,1.6a93.33,93.33,0,0,1-3.5-11.5c-3.1-11.4-10.8-41.8-11.2-43.7-.1-.6,1.8-1.4,4.3-1.8C223.6,76.9,260.9,77.5,261.9,78.6Z" transform="translate(-9.29 -8.37)"/><path class="cls-3" d="M204.9,147.6l2.3,3.3-2.2,2.3a74.59,74.59,0,0,0-5.1,6.5c-1.7,2.4-3.6,4.3-4.4,4.3-1.2,0-72-35.4-73.5-36.7-.8-.8,14.5-14.9,21.8-20.1,9.3-6.6,18.4-12.1,20.2-12.1.8,0,9.8,11.1,20,24.6S203.6,145.8,204.9,147.6Z" transform="translate(-9.29 -8.37)"/><path class="cls-3" d="M191.4,207.5c.8,2.7,1.4,5.1,1.2,5.3s-19.2,2.3-42.3,4.8-48.1,5.1-55.8,5.9-14.3,1.1-14.7.7c-1-1,1.5-17.6,4.2-28.3C87.7,181.7,94.7,164,96.8,164c.7,0,14.5,2.9,30.5,6.5s36.6,8.2,45.6,10.3l16.4,3.7.3,9C189.7,198.4,190.5,204.7,191.4,207.5Z" transform="translate(-9.29 -8.37)"/><path id="monalisa" class="cls-4" d="M232.3,153.3c-12.8,9.5-19.2,22.6-12.5,26.1,4.8,2.5,7.4,6.2,7.7,10.6.3,4.9,1,5.7,5,6.2,3.3.3,4.5,2.9,2.5,5.4-1.1,1.2-1.6,1.1-3.6-1.1a7.76,7.76,0,0,0-4.9-2.5c-5.3,0-6.4-1.4-5.8-7.5.5-4.5.2-5.9-1.2-7.5-2.7-3-4.9-2.4-8,2-5.8,8.4-3.9,19,4.8,26.6,5.8,5,18.8,11.4,23.2,11.4,7.8,0,20.5-9.2,25.3-18.5,2.3-4.3,2.7-6.2,2.7-13.5s-.4-9.3-2.9-14.4c-6-12.3-20-27.6-25.2-27.6C238.8,149,235.6,151,232.3,153.3Z" transform="translate(-9.29 -8.37)"/><path class="cls-1" d="M172.6,260.2c-1.6,5.4-11.7,67.4-11.4,70,.3,2.9.7,3.3,4.2,4,4.9,1,14.3-.5,19.5-3.2,12.7-6.5,21.4-24.3,21.4-44.1,0-7.5-.4-9.5-2.7-14.4-3.4-6.7-8.6-10.9-15.7-12.4C181,258.6,173,258.7,172.6,260.2Z" transform="translate(-9.29 -8.37)"/><path class="cls-1" d="M283.2,290.4c-1.2,5.2-2.2,10.1-2.2,10.8,0,1,2.1,1.3,8,1.3,4.4,0,8-.3,8-.7,0-.9-9.8-19-10.9-20.1C285.7,281.3,284.4,285.2,283.2,290.4Z" transform="translate(-9.29 -8.37)"/><path class="cls-2" d="M357.5,81.7c-4.4,5.3-8.4,10.3-8.8,11-1.8,3,12.8,13.1,17,11.7,4.4-1.4,6.8-3.2,9.9-7.3,2.7-3.5,3.4-5.3,3.4-9,0-4.3-.3-4.8-6.2-10.3-3.5-3.2-6.5-5.8-6.8-5.8S361.9,76.4,357.5,81.7Zm16.1,5c.4,1.4-.2,3.6-1.6,5.8-4.3,6.9-9.4,8.3-14.4,3.9-2.5-2.2-2.7-2.7-1.4-4.2.8-.9,3.6-4.3,6.3-7.5l4.8-5.8,2.9,2.8A13.42,13.42,0,0,1,373.6,86.7Z" transform="translate(-9.29 -8.37)"/><path class="cls-2" d="M98.1,80.3c-.8,1.1.2,2.8,4.5,7.6,3.1,3.4,5.4,6.5,5,6.8s-4.7-.6-9.8-2C88.6,90,88.5,90,86.6,92c-2.2,2.1-2.6,1.5,11.5,16.7,5.6,6.1,5.7,6.1,7.5,4.2s1.6-2.1-3.4-7.2c-5.3-5.4-6.7-8.3-3.4-7.3.9.3,5.2,1.5,9.5,2.7l7.8,2.2,2.1-2.1,2.1-2-9.4-10.1C105.8,83.5,101,79,100.4,79A3.9,3.9,0,0,0,98.1,80.3Z" transform="translate(-9.29 -8.37)"/><path class="cls-2" d="M378.7,102.6,368,112.2l6.7,7.6c3.7,4.3,6.8,7.8,6.9,8,.3.7,3.4-1.1,3.4-2,0-.6-2-3.5-4.5-6.4s-4.5-5.6-4.5-6.1,1.1-2,2.5-3.3l2.5-2.4,4.9,5.5c4.5,4.9,5.1,5.3,6.5,3.9s1.1-2-3-6.8c-4.5-5.1-4.6-5.4-2.9-7.2a6,6,0,0,1,2.9-2c.6,0,3.1,2.5,5.6,5.5s4.8,5.5,5.1,5.5,1.2-.7,1.9-1.5c1.2-1.4-.6-4-11.5-16.3C389.6,93.3,387,95.1,378.7,102.6Z" transform="translate(-9.29 -8.37)"/><path class="cls-2" d="M77.6,101.9c-1.7,1.9-1.6,2.1,2.5,5.8,2.4,2.1,7,6.2,10.2,9.1s6.3,5.2,6.9,5c1.4-.5,3.4-3.5,2.8-4-.3-.2-4.3-3.8-9-7.9C78.9,99.2,79.6,99.7,77.6,101.9Z" transform="translate(-9.29 -8.37)"/><path class="cls-2" d="M70.6,109.9c-1.8,1.9-1.6,2.2,4.4,10.6,3.4,4.7,6,8.8,5.7,9.1s-4.9-.8-10.3-2.5c-9.1-2.8-9.8-2.9-11-1.3a5.61,5.61,0,0,0-1.4,2.8c0,.6,6.4,2.8,14.1,4.9l14.1,3.9L88,135c1.8-2.4,1.7-2.5-5.8-13.4C72.3,107.1,72.8,107.5,70.6,109.9Z" transform="translate(-9.29 -8.37)"/><path class="cls-2" d="M396.3,123.3c-6.2,4-11.3,7.7-11.3,8.3a3.62,3.62,0,0,0,1.4,2.3c1.2,1,2.7.4,7.7-2.9,3.4-2.2,6.6-3.7,7-3.3s-1.6,3.3-4.6,6.3c-5.9,5.8-6.2,6.6-4.2,9.4,1.3,1.7,1.7,1.7,8.6-.8,8.4-3,8.1-3,8.1-1.4,0,.7-2.7,2.9-6,4.8s-6,3.8-6,4.2c0,1.6,1.3,3.8,2.3,3.8.7,0,21.5-12.8,23.6-14.6.8-.7-4.3-7.5-5.4-7-4.7,1.8-15.8,4.6-16.3,4.2-.3-.3,2.3-3.5,5.7-7.1l6.3-6.5-2.1-3.2c-1.1-1.8-2.4-3.4-2.8-3.5S402.4,119.4,396.3,123.3Z" transform="translate(-9.29 -8.37)"/><path class="cls-2" d="M53.6,135.6a11.15,11.15,0,0,0-.6,2.3c0,.9,22.3,14.1,23.7,14.1.5,0,1.4-.9,2-1.9.9-1.5.9-2.1,0-2.9-2.6-2-22.4-13.2-23.4-13.2A2.24,2.24,0,0,0,53.6,135.6Z" transform="translate(-9.29 -8.37)"/><path class="cls-2" d="M420.2,152.9c-4.6,6.8-6.1,8.2-10.5,10.1-6.4,2.7-5.9,2.2-4.8,5.3l1,2.6,5.7-2.5,5.6-2.5,9,1.7c4.9.9,9.1,1.4,9.4,1.1s0-1.6-.7-3c-.9-2.1-2.1-2.6-6.8-3.2-3.1-.4-6-.9-6.4-1.2s.8-2.6,2.8-5.3c3.8-5.2,4.2-6.7,2.3-9.3C425.6,145.2,424.9,145.9,420.2,152.9Z" transform="translate(-9.29 -8.37)"/><path class="cls-2" d="M51,148.7c-3.1,1.2-6,4.7-8.6,10.9-1.5,3.5-2.5,6.6-2.3,6.8.7.8,25.2,11.7,25.4,11.4,1.5-1.6,5.5-13.5,5.5-16.2C71,154,58.5,146,51,148.7Zm11.6,8.4c3.5,2.1,3.6,2.4,3.1,6.7-.8,7.2-1.9,7.5-11.4,3.1-8.2-3.8-8.3-3.9-7.2-6.6,1.9-5,4-6.6,8.1-6A21.67,21.67,0,0,1,62.6,157.1Z" transform="translate(-9.29 -8.37)"/><path class="cls-2" d="M43,197.4c0,4.4-1,5.6-4.6,5.6-3.1,0-3.4.3-3.4,2.9s.3,2.9,3.3,2.7l3.2-.1.3,6.7c.3,6.8.3,6.8,3.2,6.8h3v-6.5c0-4.5.4-6.5,1.3-6.7.6,0,2.3-.1,3.7-.2,1.9-.1,2.6-.7,2.8-2.8.3-2.4,0-2.7-3.5-3s-3.8-.5-4.1-4.1c-.3-3.2-.7-3.7-2.8-3.7C43.5,195,43,195.5,43,197.4Z" transform="translate(-9.29 -8.37)"/><path class="cls-2" d="M426.8,198.7c-.3,3.6-.5,3.8-4.1,4.1s-3.8.6-3.5,3c.2,2.1.9,2.7,2.8,2.8,1.4.1,3.1.2,3.8.3s1.2,2.1,1.2,6.6c0,6.3.1,6.5,2.5,6.5,2.6,0,2.7-.4,2.9-9,.1-4,1.4-5.2,4.7-4.5,2.7.6,2.9.5,2.9-2.4s-.3-3.1-3.5-3.1c-2.1,0-3.5-.5-3.6-1.3a31.2,31.2,0,0,1-.2-3.7c-.2-1.9-.8-2.6-2.9-2.8C427.4,194.9,427.1,195.2,426.8,198.7Z" transform="translate(-9.29 -8.37)"/><path class="cls-2" d="M46.5,240.9c-12.6,4.6-13,4.8-13.3,7.8-.3,3.5-.9,3.2,12.1,5.4,3.8.6,6.6,1.6,6.4,2.2s-4.1,2.5-8.8,4.2c-8.1,3.1-8.4,3.3-8.1,6.1a15.6,15.6,0,0,0,.6,3.1c.1.1,5.5.9,12.1,1.8s13,1.8,14.3,2c1.9.5,2.2.1,2.2-2.4,0-2.9-.2-3-5.7-3.6-9.2-.9-12.3-1.5-12.3-2.3,0-.4,2.4-1.6,5.3-2.6,11.3-4,11.4-4.1,10.9-7.6s-.1-3.4-9.9-5c-4-.6-7.3-1.6-7.3-2s3.6-2,8-3.5c7-2.3,8-3,8-5,0-1.3-.3-2.6-.7-2.8S53.7,238.4,46.5,240.9Z" transform="translate(-9.29 -8.37)"/><path class="cls-2" d="M413.5,238.2c-.2.7-.6,5.9-.8,11.5-.4,8.4-.3,10.3.9,10.3h2.2c.4.1.9-1.6,1.2-3.7l.5-3.8,10,.3c5.5.2,10.8.6,11.8.8,1.3.4,1.7-.1,1.7-2.4,0-2.5-.5-3-3.1-3.6a60.85,60.85,0,0,0-8.4-.6,60.85,60.85,0,0,1-8.4-.6c-2.9-.6-3.1-.9-3.1-5,0-3.8-.3-4.4-2-4.4A3,3,0,0,0,413.5,238.2Z" transform="translate(-9.29 -8.37)"/><path class="cls-2" d="M411.6,263.6c-1,2.5-.7,4.4.7,4.4a34.32,34.32,0,0,1,5.1,1.1l3.8,1.1-.6,4.6c-.8,6.2-1.5,6.7-7.2,5.3-2.5-.7-4.8-1.1-4.9-.9a14.23,14.23,0,0,0-1,2.9l-.6,2.5,13.6,2.9c11.6,2.4,13.8,2.6,14.6,1.4,1.5-2.5,1-3.8-1.8-4.5-8.7-1.9-8.8-2-8.6-4.5.8-7.7,1.4-9.1,3.6-8.5,1.2.3,4,.8,6.3,1.2,3.7.5,4.2.4,4.7-1.7a5.37,5.37,0,0,0,.2-2.7,117.43,117.43,0,0,0-11.7-2.8c-6.2-1.3-12.3-2.6-13.4-2.9C413,262.2,412,262.6,411.6,263.6Z" transform="translate(-9.29 -8.37)"/><path class="cls-2" d="M36.9,279.7c.6,2.2,1.5,2.9,4.2,3.3,3.1.5,3.6,1,5,5.5l1.7,5-2.7,3c-2.8,3.1-3.2,8.1-.6,7.1.8-.3,6.4-4.4,12.5-9.2,10.3-7.9,11.1-8.8,10.5-11.3a14.23,14.23,0,0,0-1-2.9c-.3-.4-25.7-3.2-28.7-3.2C36.5,277,36.3,277.6,36.9,279.7ZM59,285.2c0,1.7-6.2,6-7.1,5a8.5,8.5,0,0,1-1.4-3.5c-.7-2.7-.6-2.7,3.9-2.7C57.4,284,59,284.4,59,285.2Z" transform="translate(-9.29 -8.37)"/><path class="cls-2" d="M409.5,290.7c-3.1.8-5.6,3.4-7.7,8.2-2.4,5.3-1.8,9.7,1.9,14.2,10,11.9,27,4.5,26.1-11.3l-.3-5.2-5.2-2.3L419,292l-1.6,3.8c-2.2,5.3-2.3,8.5-.2,9,1.2.2,2.1-.6,2.8-2.3,1.5-3.9,4.4-2.9,4.8,1.6.4,5.3-2.8,8.9-8,8.9-10.8,0-16-11.9-7-15.9,2.5-1.1,3.2-2.1,3.2-4.3,0-1.5-.3-2.7-.7-2.7S410.6,290.5,409.5,290.7Z" transform="translate(-9.29 -8.37)"/><path class="cls-2" d="M59,303.5c-6.3,3-11.9,5.5-12.3,5.7-.8.3,5.8,16.5,7.4,18.3.6.6,1.5.3,2.4-.6,1.4-1.4,1.3-2.1-1-7a42.13,42.13,0,0,1-2.5-6.5c0-.7,1.7-1.9,3.8-2.7s6.7-2.9,10.4-4.6c6.6-2.9,6.8-3.1,5.6-5.6-.6-1.4-1.4-2.5-1.7-2.4S65.3,300.6,59,303.5Z" transform="translate(-9.29 -8.37)"/><path class="cls-2" d="M393.8,317.4c-.6,1.5-.9,2.8-.7,2.9s5.8,3.2,12.3,6.7c11.3,5.9,12,6.2,13.3,4.4.7-1,1.2-2.2,1-2.7s-5.7-3.7-12.5-7.3L395,314.9Z" transform="translate(-9.29 -8.37)"/><path class="cls-2" d="M69,325.6c-6.3,4.1-11.6,7.8-11.8,8.2a5.69,5.69,0,0,0,1.1,2.7c1.4,1.8,1.5,1.8,5.1-.4,2.6-1.7,4.4-2.1,6.6-1.6,1.6.4,3,1.1,3,1.6a48.83,48.83,0,0,1-3.1,7.2c-3.2,6.3-3.2,6.4-1.3,9.2l1.8,2.8,4.3-9.3,4.3-9.2,3.8.6c2,.3,5.5.9,7.6,1.3l4,.6-2.2-3.1c-2.2-3-3.2-3.4-11.7-4.8-6.8-1.1-7.1-1.8-2.1-5s5.4-4.1,3.4-6.6C80.6,318.4,79.2,319.1,69,325.6Z" transform="translate(-9.29 -8.37)"/><path class="cls-2" d="M382.2,337.1c-.8,1.2-1,2.5-.5,2.9,1.9,1.7,22.5,15.1,22.8,14.8.1-.2,2.5-3.9,5.3-8.3,3.8-5.9,4.8-8.3,4-9.2-1.7-2.1-2.6-1.6-6.3,4.2-1.9,3-3.8,5.5-4.3,5.5s-4.9-2.7-10-6-9.4-6-9.5-6A12.81,12.81,0,0,0,382.2,337.1Z" transform="translate(-9.29 -8.37)"/><path class="cls-2" d="M365.5,357l-7,7,10.5,9.9c10.5,9.9,10.5,9.9,12.5,8s2-2-2.2-6c-2.4-2.2-4.3-4.3-4.3-4.7s1.6-2.3,3.5-4.2c3.8-3.7,4.4-5.7,1.9-6.7-1.1-.4-2.8.8-5.4,3.8l-3.9,4.4-2.6-2.6-2.6-2.6,4.7-5.2c4.1-4.5,4.5-5.4,3.3-6.7S371.5,350.9,365.5,357Z" transform="translate(-9.29 -8.37)"/><path class="cls-2" d="M92.7,359.4c-7.1,3-13.1,5.7-13.4,6s.2,1.5,1.1,2.5c1.6,1.8,2.1,1.8,5,.6,3.1-1.3,3.4-1.3,5.8,1.3,5,5.6,5.1,5.9,3.8,9.3-1.2,2.7-1.1,3.3.7,5l2,2,5.8-12.7c3.1-7.1,6-13.4,6.2-14.2.5-1.2-2.3-5.2-3.6-5.2C105.8,354,99.7,356.5,92.7,359.4Zm10.3,2.1c0,1.2-4.1,8.5-4.7,8.5-1.1,0-4.3-3.3-4.3-4.4,0-.6,1.7-1.8,3.8-2.8C101.9,361,103,360.7,103,361.5Z" transform="translate(-9.29 -8.37)"/><path class="cls-2" d="M115,372c-3.4,3.4-3,6.7,1.6,13.7,1.8,2.9,3.1,5.9,2.8,6.7-1.8,4.7-8.6,1.2-9.4-4.9-.5-3.6-3.1-6.7-4.5-5.3-.4.4-.9,2.4-1.2,4.6-.5,3.5-.1,4.3,3.4,8,6.2,6.5,12.7,6.9,16.3.9,2.3-3.8,2-5.4-2.7-12.5-3.6-5.6-3.7-8.2-.5-8.2,2.7,0,6.5,4.4,5.8,6.7a2.56,2.56,0,0,0,1.4,3.1c2.8,1.7,4,.7,4-3.2C132,373.4,120.2,366.8,115,372Z" transform="translate(-9.29 -8.37)"/><path class="cls-2" d="M347,373.4c-7.1,4.8-8.5,12.6-3.4,19.8,3.7,5.4,9.2,8.3,14,7.4,4.5-.9,10-5.8,11.4-10.2,1.6-4.8-.8-11.1-6.1-15.8C358,370.1,352.4,369.7,347,373.4Zm11.4,4.7c5.6,4.4,7.1,10.7,3.4,14.6-3.9,4.2-10.1,2.8-13.7-3.1-2.8-4.4-2.7-8.1.4-11.1S354.9,375.3,358.4,378.1Z" transform="translate(-9.29 -8.37)"/><path class="cls-2" d="M321.2,390.9c-1,.6-.5,2.5,2.2,8.4,1.9,4.2,3.2,7.8,2.8,8.1s-4.4-2.1-8.9-5.1c-7.6-5-8.3-5.3-10.6-4.1l-2.5,1.3,5.7,12.2c3.1,6.7,5.9,12.5,6.3,12.8s1.5.2,2.6-.4c2-1.1,2-1.3-1.4-8.7-2-4.2-3.3-7.8-3.1-8.1s4.3,2.1,9,5.2c7.3,4.9,8.8,5.5,10.6,4.6,1.2-.7,2.1-1.6,2.1-2,0-2.1-11.4-25.1-12.4-25.1A5.11,5.11,0,0,0,321.2,390.9Z" transform="translate(-9.29 -8.37)"/><path class="cls-2" d="M147.4,392c-5.8,2.3-11.1,13.2-9.3,19.2,2.4,8.5,14.1,12.7,19.3,6.9,1.5-1.6,1.5-1.9-.3-3.5s-2.1-1.7-4.6,0c-3.2,2.1-6.9.8-8.7-3.1-2.4-5.2,3.8-15.5,9.3-15.5,2.4,0,5.9,3.4,5.9,5.9,0,1.9,1.8,3.1,4.6,3.1,2,0,1.7-3.9-.5-7.6C160,392.3,152.8,389.8,147.4,392Z" transform="translate(-9.29 -8.37)"/><path class="cls-2" d="M166.2,413.1c-2.3,7.3-3.9,13.6-3.6,14s1.6.9,2.8.9c1.9,0,2.6-.8,3.6-4.8.7-2.6,1.6-5.1,2.1-5.6.6-.7,10.9,2,10.9,2.8,0,.2-.9,2.9-2,6l-1.9,5.7,2.6,1a9.08,9.08,0,0,0,2.8.7c.7-.7,8.6-27,8.3-27.4a8.4,8.4,0,0,0-2.8-.6c-1.9-.3-2.5.4-3.8,4.2a35,35,0,0,1-1.8,4.9c-.7.7-9.6-2.2-10-3.3-.3-.7.2-3.2,1.1-5.6,1.2-3.5,1.3-4.5.3-5.2C171.3,398.6,170.4,400,166.2,413.1Z" transform="translate(-9.29 -8.37)"/><path class="cls-2" d="M290,403.8c-4.7,1.4-8.7,2.7-8.8,2.8-.5.3,7.6,26.6,8.4,27.3.6.7,20.4-5.8,20.4-6.7a5,5,0,0,0-1-2.2c-.8-1.2-1.8-1.1-7.8.8-3.7,1.2-7.1,2.2-7.4,2.2-.9,0-2.9-6.1-2.3-7,.3-.5,3.4-1.8,6.9-3,5.4-1.8,6.3-2.4,5.9-4-.7-2.5-1.6-2.5-8.6-.1-5.6,1.9-5.7,1.9-6.7.1-2-3.7-1.1-4.7,5.8-6.7,5.2-1.6,6.7-2.5,6.7-3.9C301.5,400.8,299.7,400.8,290,403.8Z" transform="translate(-9.29 -8.37)"/><path class="cls-2" d="M196.6,407.9c-.5.8-5.6,25-5.6,26.6,0,.7,1.1,1.5,2.5,1.7a23.38,23.38,0,0,0,2.5.4c0-.1,1.4-6.4,3-13.9s3-13.9,3-14.1C202,407.9,197,407.3,196.6,407.9Z" transform="translate(-9.29 -8.37)"/><path class="cls-2" d="M260.8,410.2c-3.2.6-5.8,1.5-5.8,2,0,1.8,4.1,27.2,4.4,27.6a8.26,8.26,0,0,0,3-.4c1.8-.4,2.5-1.1,2.2-2.3-.2-.9-.8-3.5-1.1-5.9-.7-4.1-.6-4.2,2.3-4.2,2.2,0,4,1.2,7.6,5,4.4,4.7,4.9,5,7.9,4.2l3.2-.9-5.2-5.3-5.3-5.3,2.5-2.5c3.3-3.2,3.3-7.5,0-10.7C273.8,408.7,270.8,408.5,260.8,410.2Zm11.7,7.3c0,2.7-.4,3.1-4.5,4.1-5.1,1.3-5.7,1-6.6-3.3-.5-2.7-.3-3.2,1.7-3.6a27,27,0,0,1,5.9-.3C272.2,414.5,272.5,414.8,272.5,417.5Z" transform="translate(-9.29 -8.37)"/><path class="cls-2" d="M206,410.6c0,.3-.7,6.2-1.5,13.1s-1.4,13.1-1.2,13.7,2.2,1.3,4.4,1.4,6.2.6,9.1,1.1c5.6.9,6.2.7,6.2-2,0-1.8-.2-1.9-10.7-3.5-1.8-.3-3.3-1-3.3-1.7s.7-5.8,1.4-11.5,1-10.4.8-10.7C210.5,409.8,206,409.9,206,410.6Z" transform="translate(-9.29 -8.37)"/><path class="cls-2" d="M228,424.2c0,17.2-.2,16.8,7.7,16.8s12.6-2,14.7-6.5c2-4.1,2.1-11.5.2-15.9-2.2-5.4-4.9-6.6-14.3-6.6H228Zm16.4-5c1,1.3,1.6,4.3,1.6,7.3,0,7.1-1.9,9.5-7.6,9.5H234V417h4.4C241.9,417,243.2,417.5,244.4,419.2Z" transform="translate(-9.29 -8.37)"/></svg>